<svg width="512" height="512" viewBox="0 0 512 512" fill="none" xmlns="http://www.w3.org/2000/svg">
<path d="M435.2 80H76.8C43.2 80 16 107.2 16 140.8V371.2C16 404.8 43.2 432 76.8 432H435.2C468.8 432 496 404.8 496 371.2V140.8C496 107.2 468.8 80 435.2 80ZM464 371.2C464 387.04 451.04 400 435.2 400H76.8C60.96 400 48 387.04 48 371.2V140.8C48 124.96 60.96 112 76.8 112H435.2C451.04 112 464 124.96 464 140.8V371.2Z" fill="black"/>
<path d="M160 336H96C91.7565 336 87.6869 337.686 84.6863 340.686C81.6857 343.687 80 347.757 80 352C80 356.243 81.6857 360.313 84.6863 363.314C87.6869 366.314 91.7565 368 96 368H160C164.243 368 168.313 366.314 171.314 363.314C174.314 360.313 176 356.243 176 352C176 347.757 174.314 343.687 171.314 340.686C168.313 337.686 164.243 336 160 336ZM416 160H96C91.7565 160 87.6869 161.686 84.6863 164.686C81.6857 167.687 80 171.757 80 176C80 180.243 81.6857 184.313 84.6863 187.314C87.6869 190.314 91.7565 192 96 192H416C420.243 192 424.313 190.314 427.314 187.314C430.314 184.313 432 180.243 432 176C432 171.757 430.314 167.687 427.314 164.686C424.313 161.686 420.243 160 416 160Z" fill="black"/>
</svg>
