<svg width="512" height="512" viewBox="0 0 512 512" fill="none" xmlns="http://www.w3.org/2000/svg">
<g clip-path="url(#clip0_2_2)">
<path d="M443.657 93.8667C443.677 91.6146 442.805 89.446 441.233 87.8336L355.9 2.50027C355.105 1.71671 354.162 1.09896 353.126 0.68292C352.091 0.26688 350.983 0.060848 349.867 0.0768V0H93.8667C79.728 0 68.2667 11.4613 68.2667 25.6V486.4C68.2667 500.539 79.728 512 93.8667 512H418.133C432.272 512 443.733 500.539 443.733 486.4V93.8667H443.657ZM358.4 29.1328L414.601 85.3333H366.933C364.67 85.3333 362.5 84.4343 360.899 82.834C359.299 81.2337 358.4 79.0632 358.4 76.8V29.1328ZM426.667 486.4C426.667 488.663 425.768 490.834 424.167 492.434C422.567 494.034 420.397 494.933 418.133 494.933H93.8667C91.6035 494.933 89.433 494.034 87.8327 492.434C86.2324 490.834 85.3333 488.663 85.3333 486.4V25.6C85.3333 23.3368 86.2324 21.1663 87.8327 19.566C89.433 17.9657 91.6035 17.0667 93.8667 17.0667H341.333V76.8C341.333 90.9387 352.795 102.4 366.933 102.4H426.667V486.4Z" fill="black"/>
<path d="M153.6 230.4C139.461 230.4 128 241.861 128 256C128 270.139 139.461 281.6 153.6 281.6C167.739 281.6 179.2 270.139 179.2 256C179.2 241.861 167.739 230.4 153.6 230.4ZM153.6 264.533C151.337 264.533 149.166 263.634 147.566 262.034C145.966 260.434 145.067 258.263 145.067 256C145.067 253.737 145.966 251.566 147.566 249.966C149.166 248.366 151.337 247.467 153.6 247.467C155.863 247.467 158.034 248.366 159.634 249.966C161.234 251.566 162.133 253.737 162.133 256C162.133 258.263 161.234 260.434 159.634 262.034C158.034 263.634 155.863 264.533 153.6 264.533ZM213.333 247.467H384V264.533H213.333V247.467ZM153.6 145.067C139.461 145.067 128 156.528 128 170.667C128 184.805 139.461 196.267 153.6 196.267C167.739 196.267 179.2 184.805 179.2 170.667C179.2 156.528 167.739 145.067 153.6 145.067ZM153.6 179.2C151.337 179.2 149.166 178.301 147.566 176.701C145.966 175.1 145.067 172.93 145.067 170.667C145.067 168.404 145.966 166.233 147.566 164.633C149.166 163.032 151.337 162.133 153.6 162.133C155.863 162.133 158.034 163.032 159.634 164.633C161.234 166.233 162.133 168.404 162.133 170.667C162.133 172.93 161.234 175.1 159.634 176.701C158.034 178.301 155.863 179.2 153.6 179.2ZM213.333 162.133H384V179.2H213.333V162.133ZM153.6 315.733C139.461 315.733 128 327.195 128 341.333C128 355.472 139.461 366.933 153.6 366.933C167.739 366.933 179.2 355.472 179.2 341.333C179.2 327.195 167.739 315.733 153.6 315.733ZM153.6 349.867C151.337 349.867 149.166 348.968 147.566 347.367C145.966 345.767 145.067 343.597 145.067 341.333C145.067 339.07 145.966 336.9 147.566 335.299C149.166 333.699 151.337 332.8 153.6 332.8C155.863 332.8 158.034 333.699 159.634 335.299C161.234 336.9 162.133 339.07 162.133 341.333C162.133 343.597 161.234 345.767 159.634 347.367C158.034 348.968 155.863 349.867 153.6 349.867ZM213.333 332.8H384V349.867H213.333V332.8ZM153.6 401.067C139.461 401.067 128 412.528 128 426.667C128 440.805 139.461 452.267 153.6 452.267C167.739 452.267 179.2 440.805 179.2 426.667C179.2 412.528 167.739 401.067 153.6 401.067ZM153.6 435.2C151.337 435.2 149.166 434.301 147.566 432.701C145.966 431.1 145.067 428.93 145.067 426.667C145.067 424.404 145.966 422.233 147.566 420.633C149.166 419.032 151.337 418.133 153.6 418.133C155.863 418.133 158.034 419.032 159.634 420.633C161.234 422.233 162.133 424.404 162.133 426.667C162.133 428.93 161.234 431.1 159.634 432.701C158.034 434.301 155.863 435.2 153.6 435.2ZM213.333 418.133H384V435.2H213.333V418.133Z" fill="black"/>
</g>
<defs>
<clipPath id="clip0_2_2">
<rect width="512" height="512" fill="white"/>
</clipPath>
</defs>
</svg>
